<svg xmlns="http://www.w3.org/2000/svg" version="1.1" xmlns:xlink="http://www.w3.org/1999/xlink" xmlns:svgjs="http://svgjs.com/svgjs" width="512" height="512"><svg version="1.1" id="SvgjsSvg1000" xmlns="http://www.w3.org/2000/svg" xmlns:xlink="http://www.w3.org/1999/xlink" x="0px" y="0px" viewBox="0 0 512 512" style="enable-background:new 0 0 512 512;" xml:space="preserve">
<path style="fill:#CCCCCC;" d="M422.709,377.312v82.37H99.231v-80.891c4.377-0.966,8.913-1.479,13.584-1.479H422.709z"></path>
<path style="fill:#E54728;" d="M461.944,377.312V502.83h-349.13c-17.325,0-33.024-7.03-44.382-18.377
	c-11.358-11.358-18.377-27.045-18.377-44.382c0-29.992,21.042-55.081,49.175-61.28v80.891h323.478v-82.37H461.944z"></path>
<polygon style="fill:#F95428;" points="461.944,9.17 461.944,377.312 422.709,377.312 422.709,377.3 112.815,377.3 112.815,9.17 "></polygon>
<path style="fill:#B3B3B3;" d="M422.709,377.312v35.457h-15.895v-0.012H99.231v-33.965c4.377-0.966,8.913-1.479,13.584-1.479
	H422.709z"></path>
<path style="fill:#E54728;" d="M112.815,377.3h309.895v0.012H112.815c-4.671,0-9.207,0.514-13.584,1.479
	c-28.133,6.199-49.175,31.288-49.175,61.28V71.929c0-34.662,28.097-62.759,62.759-62.759V377.3z"></path>
<path d="M461.944,0h-349.13C73.153,0,40.886,32.267,40.886,71.929v368.142c0,19.22,7.48,37.285,21.065,50.87
	C75.546,504.521,93.609,512,112.815,512h349.13c5.064,0,9.17-4.106,9.17-9.17V9.17C471.114,4.106,467.009,0,461.944,0z
	 M108.401,386.682c1.468-0.121,2.94-0.201,4.414-0.201h300.725v64.031H108.401V386.682z M59.226,71.929
	c0-26.422,19.226-48.423,44.419-52.788V368.75c-2.146,0.274-4.281,0.621-6.387,1.086c-15.064,3.318-28.224,11.391-38.032,22.411
	C59.226,392.247,59.226,71.929,59.226,71.929z M452.774,493.66h-339.96c-14.31,0-27.77-5.574-37.899-15.69
	c-10.117-10.117-15.69-23.578-15.69-37.899c0-20.955,12.447-39.822,30.835-48.511v68.123c0,5.064,4.106,9.17,9.17,9.17h323.478
	c5.064,0,9.17-4.106,9.17-9.17v-73.2h20.895V493.66z M452.774,368.142h-29.817c-0.083-0.002-0.165-0.012-0.248-0.012H121.984V18.34
	h330.79L452.774,368.142L452.774,368.142z"></path>
<path d="M350.141,278.603H212.092c-3.71,0-7.052-2.234-8.472-5.661c-1.42-3.427-0.635-7.37,1.988-9.993l69.438-69.438
	l-69.438-69.438c-2.623-2.623-3.408-6.567-1.988-9.993c1.419-3.427,4.763-5.661,8.472-5.661h138.049c5.064,0,9.17,4.106,9.17,9.17
	v26.072c0,5.064-4.106,9.17-9.17,9.17s-9.17-4.106-9.17-9.17v-16.902h-106.74l60.268,60.268c3.581,3.581,3.581,9.388,0,12.967
	l-60.268,60.268h106.74v-18.181c0-5.064,4.106-9.17,9.17-9.17s9.17,4.106,9.17,9.17v27.351
	C359.311,274.498,355.205,278.603,350.141,278.603z"></path>
<g>
</g>
<g>
</g>
<g>
</g>
<g>
</g>
<g>
</g>
<g>
</g>
<g>
</g>
<g>
</g>
<g>
</g>
<g>
</g>
<g>
</g>
<g>
</g>
<g>
</g>
<g>
</g>
<g>
</g>
</svg><style>@media (prefers-color-scheme: light) { :root { filter: none; } }
</style></svg>